# xmcd
#
# Track frame offsets:
#	150
#	16009
#	37675
#	56266
#	76158
#	94539
#	113643
#	137175
#	156409
#	181431
#	201830
#
# Disc length: 2951 seconds
#
# Revision: 1
# Processed by: cddbd v1.5.2PL0 Copyright (c) Steve Scherf et al.
# Submitted via: audiograbber 1.83.01
#
DISCID=7c0b850b
DTITLE=Kenny Chesney - Just Who I am
DYEAR=2007
DGENRE=Country
TTITLE0=Never Wanted Nothing More
TTITLE1=Don't Blink
TTITLE2=Shiftwork With George Strait
TTITLE3=Just Not Today
TTITLE4=Wife and Kids
TTITLE5=Got a little crazy
TTITLE6=Better as a Memory
TTITLE7=Dancing for the Groceries
TTITLE8=Wild Ride feat. Joe Walsh
TTITLE9=Scare Me
TTITLE10=Demons
EXTD=
EXTT0=
EXTT1=
EXTT2=
EXTT3=
EXTT4=
EXTT5=
EXTT6=
EXTT7=
EXTT8=
EXTT9=
EXTT10=
PLAYORDER=
